<svg width="139" height="32" viewBox="0 0 139 32" fill="none" xmlns="http://www.w3.org/2000/svg">
<mask id="mask0_1962_449" style="mask-type:luminance" maskUnits="userSpaceOnUse" x="0" y="0" width="139" height="32">
<path d="M139 0H0V32H139V0Z" fill="white"/>
</mask>
<g mask="url(#mask0_1962_449)">
<path d="M75.7924 24.8996C73.99 24.8996 72.6711 23.4382 72.6711 21.6356V13.9485H70.4386V10.5138H72.8489L72.8133 7.0258L76.4216 5.7778V10.5138H79.5429V13.9485H76.4216V21.4009H79.1839V24.8996H75.7924Z" fill="black"/>
<path d="M63.5099 25.0631C61.6222 25.0631 60.1895 24.4516 59.1586 22.7911L58.9595 22.8196C58.9879 23.5342 59.0164 24.1564 59.0164 24.8996H55.209V5.79555L59.0733 4.49066V9.19466C59.0733 10.5671 59.0733 11.3138 58.9311 12.6009L59.1586 12.6578C60.218 10.9404 61.7928 10.1689 63.6236 10.1689C67.5163 10.1689 69.948 13.4898 69.948 17.7244C69.948 21.9591 67.431 25.0631 63.5063 25.0631H63.5099ZM62.5962 21.6C64.7435 21.6 66.1157 19.9858 66.1157 17.6676C66.1157 15.3493 64.7435 13.632 62.5962 13.632C60.449 13.632 58.9915 15.3209 58.9915 17.696C58.9915 20.0711 60.3922 21.6 62.5962 21.6Z" fill="black"/>
<path d="M43.769 25.063C39.9616 25.063 37.4447 21.8488 37.4447 17.6675C37.4447 13.4861 39.9332 10.1688 43.9112 10.1688C45.7136 10.1688 47.2316 10.8834 48.2625 12.5723L48.4616 12.5154C48.3478 11.3137 48.3478 10.4817 48.3478 9.19454V5.79902L52.2121 4.49409V24.9066H48.4047C48.4047 24.1919 48.4047 23.5377 48.4616 22.823L48.2625 22.7661C47.2031 24.455 45.6567 25.0666 43.769 25.0666V25.063ZM44.8284 21.5999C47.0325 21.5999 48.4332 20.0461 48.4332 17.6675C48.4332 15.2888 47.0289 13.6319 44.8284 13.6319C42.6528 13.6604 41.309 15.3777 41.309 17.6959C41.309 20.0141 42.6528 21.5999 44.8284 21.5999Z" fill="black"/>
<path d="M136.796 24.039H137.105V24.9066H137.283V24.039H137.596V23.8861H136.796V24.039Z" fill="black"/>
<path d="M138.805 23.8861H138.659H138.62L138.303 24.6328L137.987 23.8861H137.948H137.806H137.77V24.9066H137.948V24.2097L138.257 24.9066H138.35L138.659 24.2097V24.9066H138.837V23.8861H138.805Z" fill="black"/>
<path d="M88.409 4.48699L85.7889 5.35099V24.903H96.1055V22.6381H88.409V4.48699Z" fill="black"/>
<path d="M30.3632 1.53951C31.1026 2.25417 31.5896 3.19285 31.7034 4.22041C31.7034 4.64708 31.5897 4.93508 31.3302 5.47197C31.0706 6.01241 27.9103 11.4844 26.9646 12.9991C26.4243 13.888 26.1399 14.9404 26.1399 15.9644C26.1399 16.9884 26.4278 18.0444 26.9646 18.9297C27.9032 20.4444 31.0706 25.9413 31.3302 26.4924C31.5897 27.0329 31.7034 27.2924 31.7034 27.7191C31.5896 28.7466 31.1382 29.6853 30.3881 30.3715C29.6735 31.1111 28.735 31.5982 27.736 31.6871C27.3094 31.6871 27.0215 31.5733 26.5096 31.3137C25.9977 31.0542 11.0525 22.4142 11.0525 22.4142C11.2267 23.84 11.8524 25.2089 12.8798 26.208C13.0789 26.4071 13.2815 26.5813 13.5054 26.7484C13.3312 26.8337 5.95466 31.1431 5.40719 31.4026C4.86684 31.6622 4.60732 31.776 4.15584 31.776C3.12843 31.6622 2.18991 31.2106 1.5038 30.4604C0.764363 29.7457 0.277334 28.8071 0.163574 27.7795C0.188459 27.3529 0.312879 26.9262 0.536844 26.5529C0.796358 26.0124 3.95672 20.5049 4.90235 18.9902C5.44271 18.1013 5.72714 17.0773 5.72714 16.0249C5.72714 14.9724 5.43915 13.9449 4.90235 13.0595C3.96383 11.4951 0.771473 5.98397 0.536844 5.44708C0.309324 5.07374 0.199124 4.64708 0.163574 4.22041C0.277334 3.19285 0.728817 2.25417 1.47892 1.53951C2.19347 0.799953 3.13198 0.337739 4.15939 0.223961C4.58599 0.24885 5.01259 0.37329 5.41075 0.59729C5.86223 0.796401 20.7754 9.59286 20.7754 9.59286C20.6012 7.88619 19.7622 6.34308 18.3865 5.29063C18.4931 5.23375 25.8981 0.842623 26.4491 0.607956C26.8224 0.380401 27.249 0.270183 27.7005 0.234627C28.6995 0.348405 29.6415 0.799953 30.3525 1.55017L30.3703 1.54307L30.3632 1.53951ZM16.4632 18.6631L18.5962 16.5226C18.8913 16.224 18.8913 15.7795 18.5962 15.4702L16.4632 13.3297C16.1681 13.0311 15.7237 13.0311 15.4144 13.3297L13.2815 15.4702C12.9864 15.7689 12.9864 16.2133 13.2815 16.5226L15.4144 18.6631C15.6775 18.9262 16.1539 18.9262 16.4632 18.6631Z" fill="#FE6703"/>
<path d="M114.773 22.3751L114.634 22.4035C114.663 23.296 114.663 23.9502 114.663 24.896H112.32V5.34754L114.691 4.48354V10.4355C114.691 11.7724 114.691 12.416 114.606 13.6427L114.773 13.6711C115.804 11.7475 117.507 10.7413 119.654 10.7413C123.418 10.7413 125.761 13.8631 125.761 17.9911C125.761 22.1191 123.362 25.0595 119.515 25.0595C117.368 25.0595 115.779 24.2915 114.776 22.368L114.773 22.3751ZM123.418 17.9698C123.418 15.0684 121.773 12.8924 119.096 12.8924C116.419 12.8924 114.577 14.9831 114.577 17.9947C114.577 21.0062 116.305 22.944 119.096 22.944C121.801 22.9155 123.418 20.8675 123.418 17.9662V17.9698Z" fill="black"/>
<path d="M126.988 22.8515L128.605 21.3724C129.508 22.4142 130.66 23.1004 131.975 23.1004C133.511 23.1004 134.634 22.3538 134.634 20.9849C134.634 19.616 133.319 19.2035 131.84 18.7911C129.647 18.1618 127.649 17.2551 127.649 14.7626C127.649 12.2702 129.675 10.7342 132.306 10.7342C133.977 10.7342 135.374 11.3102 136.469 12.5155L134.933 13.9946C134.194 13.1449 133.316 12.7075 132.274 12.7075C130.848 12.7075 129.807 13.4186 129.807 14.6809C129.807 15.9431 131.069 16.3804 132.519 16.7893C134.766 17.4471 136.792 18.2684 136.792 20.8711C136.792 23.4738 134.709 25.0702 131.886 25.0702C129.942 25.0702 128.186 24.2204 126.981 22.8515H126.988Z" fill="black"/>
<path d="M108.953 15.6408V24.903H106.586C106.586 23.9324 106.586 23.3386 106.643 22.3964L106.507 22.3786C105.452 24.3448 104.346 25.063 102.181 25.063C99.497 25.063 97.979 22.9937 97.979 21.1946C97.979 18.791 99.0704 17.0061 103.041 17.0061H107.457L106.685 17.4257V15.9075C106.685 14.3359 105.978 12.8924 103.603 12.8924C101.228 12.8924 99.6961 14.2079 99.6783 14.2221L98.6473 12.423C98.6473 12.423 100.759 10.7306 103.831 10.7306C106.579 10.7306 108.957 12.2452 108.957 15.6408H108.953ZM102.945 18.887C100.691 18.887 100.137 19.5306 100.137 20.935C100.137 22.4177 101.378 23.0435 102.935 23.0435C105.487 23.0435 106.671 20.9457 106.671 18.887H102.945Z" fill="black"/>
</g>
</svg>
