<svg xmlns="http://www.w3.org/2000/svg" width="688.553" height="217.798" viewBox="0 0 688.553 217.798"><g data-name="Group 403" fill="#1a1a2e"><path data-name="Path 173" d="M36.549 188.099c-9.135 0-17.573-3.687-21.788-7.2v36.9H.001V99.015h12.474l1.231 8.783c4.042-5.623 13.53-10.543 23.9-10.543 25.65 0 32.328 20.736 32.328 45.338-.003 27.404-9.139 45.506-33.385 45.506zm-21.788-18.8a32.168 32.168 0 0019.677 6.85c17.043 0 20.733-13.352 20.733-33.732s-3.16-33.213-19.678-33.213c-8.786 0-15.809 4.219-20.732 8.609zm117.721-57.988a105.605 105.605 0 00-27.235 9.139v65.715H90.488v-87.15h12.124l1.579 10.189c5.272-5.27 14.938-10.365 26.357-11.422zm23.193 37.781c.881 18.447 5.447 27.232 23.194 27.232a74.108 74.108 0 0025.653-4.92l2.284 11.242c-7.2 2.986-18.626 5.275-28.113 5.275-31.453 0-37.779-21.439-37.779-45.861 0-25.121 8.258-44.8 34.968-44.8 23.72 0 33.56 16.693 33.56 37.6v14.234zm0-11.6h39.534v-3.164c0-16.168-5.093-26.008-19.5-26.008-16.341.007-19.858 11.783-20.034 29.179zm95.582 50.428c-8.786 0-20.03-1.934-27.587-5.8l2.811-11.592a61.879 61.879 0 0024.075 5.447c11.592 0 17.747-3.162 17.747-13.006 0-9.314-6.326-12.123-18.1-14.936-19.152-4.568-26.354-11.244-26.354-26.18 0-16.344 8.96-24.6 29.339-24.6 8.434 0 17.4 1.582 23.546 4.387l-2.459 11.779a59.637 59.637 0 00-20.734-4.219c-11.071 0-15.288 2.984-15.288 11.773 0 9.137 4.217 10.893 16.692 14.232 17.042 4.568 27.761 10.014 27.761 26.709.002 18.277-13.354 26.013-31.449 26.013zm94.355-2.637c-3.689 1.4-12.3 2.635-17.92 2.635-14.935 0-21.26-8.26-21.26-21.793v-55.164h-15.111V99.008h15.111V77.753l14.758-2.1v23.365h24.774l-1.229 11.953H321.19v54.469c0 8.078 1.933 10.543 10.014 10.543a64.8 64.8 0 0013.179-1.762l1.229 11.072zm48.843 2.637c-25.3 0-36.724-18.977-36.724-45.33s11.421-45.338 36.724-45.338 36.723 18.975 36.723 45.338-11.422 45.337-36.723 45.337zm0-78.721c-18.273 0-21.966 14.934-21.966 33.391s3.692 33.383 21.966 33.383 21.965-14.937 21.965-33.383-3.692-33.384-21.965-33.384z"/><g data-name="Group 404" transform="translate(0 -.001)"><circle data-name="Ellipse 154" cx="10.004" cy="10.004" r="10.004" transform="rotate(-45 303.615 -684.688)"/><circle data-name="Ellipse 155" cx="11.114" cy="11.114" r="11.114" transform="rotate(-45 349.778 -702.237)"/><circle data-name="Ellipse 156" cx="12.224" cy="12.224" r="12.224" transform="rotate(-45 395.947 -719.786)"/><circle data-name="Ellipse 157" cx="13.334" cy="13.334" r="13.334" transform="rotate(-45 442.06 -737.32)"/><circle data-name="Ellipse 158" cx="8.894" cy="8.894" r="8.894" transform="rotate(-45 276.913 -620.223)"/><circle data-name="Ellipse 159" cx="10.004" cy="10.004" r="10.004" transform="rotate(-45 323.077 -637.775)"/><circle data-name="Ellipse 160" cx="11.114" cy="11.114" r="11.114" transform="rotate(-45 369.195 -655.306)"/><circle data-name="Ellipse 161" cx="12.224" cy="12.224" r="12.224" transform="rotate(-45 415.334 -672.851)"/><circle data-name="Ellipse 162" cx="13.334" cy="13.334" r="13.334" transform="rotate(-45 461.52 -690.398)"/><circle data-name="Ellipse 163" cx="7.784" cy="7.784" r="7.784" transform="rotate(-45 250.265 -555.78)"/><circle data-name="Ellipse 164" cx="8.894" cy="8.894" r="8.894" transform="rotate(-45 296.35 -573.301)"/><circle data-name="Ellipse 165" cx="10.004" cy="10.004" r="10.004" transform="rotate(-45 342.54 -590.86)"/><circle data-name="Ellipse 166" cx="11.114" cy="11.114" r="11.114" transform="rotate(-45 388.677 -608.4)"/><circle data-name="Ellipse 167" cx="12.224" cy="12.224" r="12.224" transform="rotate(-45 434.823 -625.937)"/><circle data-name="Ellipse 168" cx="13.334" cy="13.334" r="13.334" transform="rotate(-45 480.909 -643.47)"/><circle data-name="Ellipse 169" cx="8.894" cy="8.894" r="8.894" transform="rotate(-45 409.63 -565.256)"/><circle data-name="Ellipse 170" cx="8.894" cy="8.894" transform="translate(495.875 142.683)" r="8.894"/><circle data-name="Ellipse 171" cx="8.894" cy="8.894" transform="translate(468.396 170.188)" r="8.894"/><circle data-name="Ellipse 172" cx="8.894" cy="8.894" transform="translate(523.361 170.173)" r="8.894"/><circle data-name="Ellipse 173" cx="8.894" cy="8.894" r="8.894" transform="rotate(-45 503.506 -604.127)"/><circle data-name="Ellipse 174" cx="8.894" cy="8.894" r="8.894" transform="rotate(-45 456.547 -584.693)"/></g></g></svg>